<?xml version="1.0" encoding="UTF-8" standalone="no"?>
<svg
   xmlns:dc="http://purl.org/dc/elements/1.1/"
   xmlns:cc="http://creativecommons.org/ns#"
   xmlns:rdf="http://www.w3.org/1999/02/22-rdf-syntax-ns#"
   xmlns:svg="http://www.w3.org/2000/svg"
   xmlns="http://www.w3.org/2000/svg"
   xmlns:sodipodi="http://sodipodi.sourceforge.net/DTD/sodipodi-0.dtd"
   xmlns:inkscape="http://www.inkscape.org/namespaces/inkscape"
   version="1.1"
   width="1115.625"
   height="609.375"
   id="svg153"
   sodipodi:docname="exp as geometric series.svg"
   inkscape:version="0.92.4 (5da689c313, 2019-01-14)">
  <metadata
     id="metadata157">
    <rdf:RDF>
      <cc:Work
         rdf:about="">
        <dc:format>image/svg+xml</dc:format>
        <dc:type
           rdf:resource="http://purl.org/dc/dcmitype/StillImage" />
        <dc:title></dc:title>
      </cc:Work>
    </rdf:RDF>
  </metadata>
  <sodipodi:namedview
     pagecolor="#ffffff"
     bordercolor="#666666"
     borderopacity="1"
     objecttolerance="10"
     gridtolerance="10"
     guidetolerance="10"
     inkscape:pageopacity="0"
     inkscape:pageshadow="2"
     inkscape:window-width="1920"
     inkscape:window-height="1001"
     id="namedview155"
     showgrid="false"
     inkscape:zoom="0.45254834"
     inkscape:cx="-26.692042"
     inkscape:cy="550.606"
     inkscape:window-x="-9"
     inkscape:window-y="-9"
     inkscape:window-maximized="1"
     inkscape:current-layer="g151"
     fit-margin-top="0"
     fit-margin-left="0"
     fit-margin-right="0"
     fit-margin-bottom="0"
     showborder="false" />
  <defs
     id="defs5">
    <clipPath
       id="mDJhJEFqTypL">
      <path
         d="M 0,0 H 1156 V 657 H 0 Z"
         id="path2"
         inkscape:connector-curvature="0"
         style="fill:none;stroke:none" />
    </clipPath>
    <clipPath
       clipPathUnits="userSpaceOnUse"
       id="clipPath3874">
      <rect
         style="opacity:1;fill:#000000;fill-opacity:1;stroke:none;stroke-width:2.79999995;stroke-miterlimit:4;stroke-dasharray:none;stroke-dashoffset:0;stroke-opacity:1;paint-order:fill markers stroke"
         id="rect3876"
         width="1366.6038"
         height="734.69543"
         x="-349.05121"
         y="370.20123"
         transform="rotate(-28)" />
    </clipPath>
    <clipPath
       clipPathUnits="userSpaceOnUse"
       id="clipPath3882">
      <rect
         style="opacity:1;fill:#000000;fill-opacity:1;stroke:none;stroke-width:2.79999995;stroke-miterlimit:4;stroke-dasharray:none;stroke-dashoffset:0;stroke-opacity:1;paint-order:fill markers stroke"
         id="rect3884"
         width="1115.625"
         height="609.375"
         x="17.1875"
         y="17.937498" />
    </clipPath>
  </defs>
  <g
     clip-path="url(#mDJhJEFqTypL)"
     id="g151"
     transform="translate(-17.1875,-17.937498)">
    <g
       id="g149"
       clip-path="url(#clipPath3882)">
      <rect
         x="0"
         y="0"
         width="1156"
         height="657"
         id="rect7"
         style="fill:#ffffff;fill-opacity:1;stroke:none" />
      <path
         d="m 379.51412,559.53306 21.21263,-0.15521 -0.15521,-21.21264 -21.21264,0.15522 0.15522,21.21263"
         id="path9"
         inkscape:connector-curvature="0"
         style="fill:#000000;fill-opacity:0.09803922;fill-rule:evenodd;stroke:none;paint-order:stroke fill markers" />
      <path
         d="m 379.51412,559.53306 21.21263,-0.15521 -0.15521,-21.21264 -21.21264,0.15522 0.15522,21.21263"
         stroke-miterlimit="10"
         id="path11"
         inkscape:connector-curvature="0"
         style="fill:none;stroke:#000000;stroke-width:2;stroke-linecap:round;stroke-linejoin:round;stroke-miterlimit:10;stroke-opacity:0.6;paint-order:fill stroke markers" />
      <path
         d="m 379.75029,390.46008 19.08435,-9.26216 -9.26216,-19.08435 -19.08435,9.26216 9.26216,19.08435"
         id="path13"
         inkscape:connector-curvature="0"
         style="fill:#000000;fill-opacity:0.09803922;fill-rule:evenodd;stroke:none;paint-order:stroke fill markers" />
      <path
         d="m 379.75029,390.46008 19.08435,-9.26216 -9.26216,-19.08435 -19.08435,9.26216 9.26216,19.08435"
         stroke-miterlimit="10"
         id="path15"
         inkscape:connector-curvature="0"
         style="fill:none;stroke:#000000;stroke-width:2;stroke-linecap:round;stroke-linejoin:round;stroke-miterlimit:10;stroke-opacity:0.6;paint-order:fill stroke markers" />
      <path
         d="m 462.15442,558.92838 21.21263,-0.15522 -0.15521,-21.21263 -21.21264,0.15521 0.15522,21.21264"
         id="path17"
         inkscape:connector-curvature="0"
         style="fill:#000000;fill-opacity:0.09803922;fill-rule:evenodd;stroke:none;paint-order:stroke fill markers" />
      <path
         d="m 462.15442,558.92838 21.21263,-0.15522 -0.15521,-21.21263 -21.21264,0.15521 0.15522,21.21264"
         stroke-miterlimit="10"
         id="path19"
         inkscape:connector-curvature="0"
         style="fill:none;stroke:#000000;stroke-width:2;stroke-linecap:round;stroke-linejoin:round;stroke-miterlimit:10;stroke-opacity:0.6;paint-order:fill stroke markers" />
      <path
         d="m 459.98199,351.52144 19.08435,-9.26215 -9.26215,-19.08436 -19.08436,9.26216 9.26216,19.08435"
         id="path21"
         inkscape:connector-curvature="0"
         style="fill:#000000;fill-opacity:0.09803922;fill-rule:evenodd;stroke:none;paint-order:stroke fill markers" />
      <path
         d="m 459.98199,351.52144 19.08435,-9.26215 -9.26215,-19.08436 -19.08436,9.26216 9.26216,19.08435"
         stroke-miterlimit="10"
         id="path23"
         inkscape:connector-curvature="0"
         style="fill:none;stroke:#000000;stroke-width:2;stroke-linecap:round;stroke-linejoin:round;stroke-miterlimit:10;stroke-opacity:0.6;paint-order:fill stroke markers" />
      <path
         d="m 560.57492,558.20823 21.21263,-0.15522 -0.15521,-21.21263 -21.21264,0.15521 0.15522,21.21264"
         id="path25"
         inkscape:connector-curvature="0"
         style="fill:#000000;fill-opacity:0.09803922;fill-rule:evenodd;stroke:none;paint-order:stroke fill markers" />
      <path
         d="m 560.57492,558.20823 21.21263,-0.15522 -0.15521,-21.21263 -21.21264,0.15521 0.15522,21.21264"
         stroke-miterlimit="10"
         id="path27"
         inkscape:connector-curvature="0"
         style="fill:none;stroke:#000000;stroke-width:2;stroke-linecap:round;stroke-linejoin:round;stroke-miterlimit:10;stroke-opacity:0.6;paint-order:fill stroke markers" />
      <path
         d="m 559.1803,303.3778 19.08435,-9.26216 -9.26216,-19.08435 -19.08435,9.26215 9.26216,19.08436"
         id="path29"
         inkscape:connector-curvature="0"
         style="fill:#000000;fill-opacity:0.09803922;fill-rule:evenodd;stroke:none;paint-order:stroke fill markers" />
      <path
         d="m 559.1803,303.3778 19.08435,-9.26216 -9.26216,-19.08435 -19.08435,9.26215 9.26216,19.08436"
         stroke-miterlimit="10"
         id="path31"
         inkscape:connector-curvature="0"
         style="fill:none;stroke:#000000;stroke-width:2;stroke-linecap:round;stroke-linejoin:round;stroke-miterlimit:10;stroke-opacity:0.6;paint-order:fill stroke markers" />
      <path
         d="m 684.00008,242.79935 19.08435,-9.26216 -9.26216,-19.08435 -19.08435,9.26216 9.26216,19.08435"
         id="path33"
         inkscape:connector-curvature="0"
         style="fill:#000000;fill-opacity:0.09803922;fill-rule:evenodd;stroke:none;paint-order:stroke fill markers" />
      <path
         d="m 684.00008,242.79935 19.08435,-9.26216 -9.26216,-19.08435 -19.08435,9.26216 9.26216,19.08435"
         stroke-miterlimit="10"
         id="path35"
         inkscape:connector-curvature="0"
         style="fill:none;stroke:#000000;stroke-width:2;stroke-linecap:round;stroke-linejoin:round;stroke-miterlimit:10;stroke-opacity:0.6;paint-order:fill stroke markers" />
      <path
         d="m 684.07915,557.30454 21.21264,-0.15522 -0.15522,-21.21263 -21.21263,0.15521 0.15521,21.21264"
         id="path37"
         inkscape:connector-curvature="0"
         style="fill:#000000;fill-opacity:0.09803922;fill-rule:evenodd;stroke:none;paint-order:stroke fill markers" />
      <path
         d="m 684.07915,557.30454 21.21264,-0.15522 -0.15522,-21.21263 -21.21263,0.15521 0.15521,21.21264"
         stroke-miterlimit="10"
         id="path39"
         inkscape:connector-curvature="0"
         style="fill:none;stroke:#000000;stroke-width:2;stroke-linecap:round;stroke-linejoin:round;stroke-miterlimit:10;stroke-opacity:0.6;paint-order:fill stroke markers" />
      <path
         d="m 834.21211,556.206 21.21264,-0.15521 -0.15522,-21.21264 -21.21263,0.15522 0.15521,21.21263"
         id="path41"
         inkscape:connector-curvature="0"
         style="fill:#000000;fill-opacity:0.09803922;fill-rule:evenodd;stroke:none;paint-order:stroke fill markers" />
      <path
         d="m 834.21211,556.206 21.21264,-0.15521 -0.15522,-21.21264 -21.21263,0.15522 0.15521,21.21263"
         stroke-miterlimit="10"
         id="path43"
         inkscape:connector-curvature="0"
         style="fill:none;stroke:#000000;stroke-width:2;stroke-linecap:round;stroke-linejoin:round;stroke-miterlimit:10;stroke-opacity:0.6;paint-order:fill stroke markers" />
      <path
         d="M 380.26387,662 375.38339,-5"
         stroke-miterlimit="10"
         id="path45"
         inkscape:connector-curvature="0"
         style="fill:none;stroke:#616161;stroke-width:2.5;stroke-linecap:round;stroke-linejoin:round;stroke-miterlimit:10;stroke-opacity:0.8;paint-order:fill stroke markers" />
      <path
         d="M 511.53603,662 187.82271,-5"
         stroke-miterlimit="10"
         id="path47"
         inkscape:connector-curvature="0"
         style="fill:none;stroke:#616161;stroke-width:2.5;stroke-linecap:round;stroke-linejoin:round;stroke-miterlimit:10;stroke-opacity:0.8;paint-order:fill stroke markers" />
      <path
         d="M 462.9086,662 458.02811,-5"
         stroke-miterlimit="10"
         id="path49"
         inkscape:connector-curvature="0"
         style="fill:none;stroke:#616161;stroke-width:2.5;stroke-linecap:round;stroke-linejoin:round;stroke-miterlimit:10;stroke-opacity:0.8;paint-order:fill stroke markers" />
      <path
         d="M 610.66572,662 286.9524,-5"
         stroke-miterlimit="10"
         id="path51"
         inkscape:connector-curvature="0"
         style="fill:none;stroke:#616161;stroke-width:2.5;stroke-linecap:round;stroke-linejoin:round;stroke-miterlimit:10;stroke-opacity:0.8;paint-order:fill stroke markers" />
      <path
         d="M 561.33437,662 556.45388,-5"
         stroke-miterlimit="10"
         id="path53"
         inkscape:connector-curvature="0"
         style="fill:none;stroke:#616161;stroke-width:2.5;stroke-linecap:round;stroke-linejoin:round;stroke-miterlimit:10;stroke-opacity:0.8;paint-order:fill stroke markers" />
      <path
         d="M 733.22945,662 409.51613,-5"
         stroke-miterlimit="10"
         id="path55"
         inkscape:connector-curvature="0"
         style="fill:none;stroke:#616161;stroke-width:2.5;stroke-linecap:round;stroke-linejoin:round;stroke-miterlimit:10;stroke-opacity:0.8;paint-order:fill stroke markers" />
      <path
         d="M 684.84521,662 679.96473,-5"
         stroke-miterlimit="10"
         id="path57"
         inkscape:connector-curvature="0"
         style="fill:none;stroke:#616161;stroke-width:2.5;stroke-linecap:round;stroke-linejoin:round;stroke-miterlimit:10;stroke-opacity:0.8;paint-order:fill stroke markers" />
      <path
         d="M 887.4496,662 563.73628,-5"
         stroke-miterlimit="10"
         id="path59"
         inkscape:connector-curvature="0"
         style="fill:none;stroke:#616161;stroke-width:2.5;stroke-linecap:round;stroke-linejoin:round;stroke-miterlimit:10;stroke-opacity:0.8;paint-order:fill stroke markers" />
      <path
         d="M 834.98621,662 830.10573,-5"
         stroke-miterlimit="10"
         id="path61"
         inkscape:connector-curvature="0"
         style="fill:none;stroke:#616161;stroke-width:2.5;stroke-linecap:round;stroke-linejoin:round;stroke-miterlimit:10;stroke-opacity:0.8;paint-order:fill stroke markers" />
      <path
         d="M 26.05231,562.11937 1156,553.85146"
         stroke-miterlimit="10"
         id="path63"
         inkscape:connector-curvature="0"
         style="fill:none;stroke:#616161;stroke-width:2.5;stroke-linecap:round;stroke-linejoin:round;stroke-miterlimit:10;stroke-opacity:0.8;paint-order:fill stroke markers" />
      <path
         d="M 26.05231,562.11937 1156,13.724892"
         stroke-miterlimit="10"
         id="path65"
         inkscape:connector-curvature="0"
         style="fill:none;stroke:#616161;stroke-width:2.5;stroke-linecap:round;stroke-linejoin:round;stroke-miterlimit:10;stroke-opacity:0.8;paint-order:fill stroke markers" />
      <path
         d="m 31.05231,562.11937 c 0,2.76142 -2.238576,5 -5,5 -2.761424,0 -5,-2.23858 -5,-5 0,-2.76142 2.238576,-5 5,-5 2.761424,0 5,2.23858 5,5 z"
         id="path67"
         inkscape:connector-curvature="0"
         style="fill:#1565c0;fill-opacity:1;stroke:none;paint-order:stroke fill markers" />
      <path
         d="m 31.05231,562.11937 c 0,2.76142 -2.238576,5 -5,5 -2.761424,0 -5,-2.23858 -5,-5 0,-2.76142 2.238576,-5 5,-5 2.761424,0 5,2.23858 5,5 z"
         stroke-miterlimit="10"
         id="path69"
         inkscape:connector-curvature="0"
         style="fill:none;stroke:#000000;stroke-linecap:round;stroke-linejoin:round;stroke-miterlimit:10;stroke-opacity:1;paint-order:fill stroke markers" />
      <text
         font-size="16px"
         font-style="normal"
         font-weight="normal"
         text-decoration="normal"
         x="358"
         y="484"
         dominant-baseline="alphabetic"
         id="text71"
         style="font-style:normal;font-weight:normal;font-size:16px;font-family:geogebra-sans-serif, sans-serif;dominant-baseline:alphabetic;text-anchor:start;fill:#000000;fill-opacity:1;stroke:none">1</text>
      <g
         transform="scale(19)"
         id="g77">
        <g
           transform="translate(22.473684,24.536263)"
           id="g75">
          <path
             d="m 0.088,-0.059 v 0 L 0.146,-0.29 q 0.016,-0.064 0.016,-0.084 0,-0.046 -0.031,-0.046 -0.041,0 -0.067,0.095 -0.003,0.011 -0.006,0.024 -0.011,0.022 -0.017,0.023 -0.012,0 -0.012,-0.01 0,-0.016 0.018,-0.067 0.007,-0.018 0.013,-0.03 0.024,-0.049 0.06,-0.056 0.007,-0.001 0.014,-0.001 0.056,0 0.081,0.048 0.006,0.011 0.009,0.024 0.001,0.002 0.001,0.005 0.058,-0.072 0.128,-0.077 0.056,0 0.076,0.039 0.007,0.012 0.007,0.026 0,0.039 -0.033,0.054 -0.011,0.005 -0.022,0.005 -0.031,0 -0.037,-0.027 -10e-4,-0.004 -10e-4,-0.008 0,-0.033 0.034,-0.049 L 0.378,-0.403 Q 0.386,-0.406 0.395,-0.408 L 0.375,-0.417 Q 0.362,-0.419 0.353,-0.42 q -0.042,0 -0.08,0.033 -0.031,0.028 -0.053,0.074 -0.002,0.005 -0.003,0.008 l -0.032,0.13 -0.04,0.158 Q 0.136,0.009 0.108,0.011 0.083,0.006 0.079,-0.016 q 0,0.002 0.009,-0.043 z"
             id="path73"
             inkscape:connector-curvature="0"
             style="fill:#000000;stroke:none;paint-order:stroke fill markers" />
        </g>
      </g>
      <g
         transform="scale(19)"
         id="g87">
        <g
           transform="translate(24.789474,24.074218)"
           id="g81">
          <path
             d="m 0.088,-0.059 v 0 L 0.146,-0.29 q 0.016,-0.064 0.016,-0.084 0,-0.046 -0.031,-0.046 -0.041,0 -0.067,0.095 -0.003,0.011 -0.006,0.024 -0.011,0.022 -0.017,0.023 -0.012,0 -0.012,-0.01 0,-0.016 0.018,-0.067 0.007,-0.018 0.013,-0.03 0.024,-0.049 0.06,-0.056 0.007,-0.001 0.014,-0.001 0.056,0 0.081,0.048 0.006,0.011 0.009,0.024 0.001,0.002 0.001,0.005 0.058,-0.072 0.128,-0.077 0.056,0 0.076,0.039 0.007,0.012 0.007,0.026 0,0.039 -0.033,0.054 -0.011,0.005 -0.022,0.005 -0.031,0 -0.037,-0.027 -10e-4,-0.004 -10e-4,-0.008 0,-0.033 0.034,-0.049 L 0.378,-0.403 Q 0.386,-0.406 0.395,-0.408 L 0.375,-0.417 Q 0.362,-0.419 0.353,-0.42 q -0.042,0 -0.08,0.033 -0.031,0.028 -0.053,0.074 -0.002,0.005 -0.003,0.008 l -0.032,0.13 -0.04,0.158 Q 0.136,0.009 0.108,0.011 0.083,0.006 0.079,-0.016 q 0,0.002 0.009,-0.043 z"
             id="path79"
             inkscape:connector-curvature="0"
             style="fill:#000000;stroke:none;paint-order:stroke fill markers" />
        </g>
        <g
           transform="matrix(0.7,0,0,0.7,25.268474,23.661326)"
           id="g85">
          <path
             d="m 0.449,-0.174 v 0 L 0.421,0 H 0.05 q 0,-0.025 0.006,-0.032 l 0.005,-0.005 0.192,-0.214 q 0.105,-0.118 0.105,-0.221 0,-0.089 -0.054,-0.135 L 0.303,-0.608 H 0.302 Q 0.27,-0.635 0.224,-0.635 q -0.072,0 -0.115,0.062 -0.012,0.018 -0.02,0.04 0.003,-0.001 0.013,-0.001 0.04,0 0.051,0.036 v 0.001 q 0.002,0.007 0.002,0.015 0,0.04 -0.038,0.051 -0.008,0.002 -0.014,0.002 -0.037,0 -0.049,-0.031 -0.004,-0.011 -0.004,-0.025 0,-0.077 0.059,-0.132 0.053,-0.049 0.128,-0.049 0.11,0 0.171,0.074 0.035,0.043 0.04,0.102 0.001,0.009 0.001,0.018 0,0.073 -0.055,0.139 -0.029,0.034 -0.09,0.09 l -0.061,0.054 -0.01,0.009 -0.106,0.103 h 0.18 q 0.088,0 0.095,-0.008 0.01,-0.014 0.022,-0.089 z"
             id="path83"
             inkscape:connector-curvature="0"
             style="fill:#000000;stroke:none;paint-order:stroke fill markers" />
        </g>
      </g>
      <g
         transform="scale(19)"
         id="g97">
        <g
           transform="translate(27.052632,23.547903)"
           id="g91">
          <path
             d="m 0.088,-0.059 v 0 L 0.146,-0.29 q 0.016,-0.064 0.016,-0.084 0,-0.046 -0.031,-0.046 -0.041,0 -0.067,0.095 -0.003,0.011 -0.006,0.024 -0.011,0.022 -0.017,0.023 -0.012,0 -0.012,-0.01 0,-0.016 0.018,-0.067 0.007,-0.018 0.013,-0.03 0.024,-0.049 0.06,-0.056 0.007,-0.001 0.014,-0.001 0.056,0 0.081,0.048 0.006,0.011 0.009,0.024 0.001,0.002 0.001,0.005 0.058,-0.072 0.128,-0.077 0.056,0 0.076,0.039 0.007,0.012 0.007,0.026 0,0.039 -0.033,0.054 -0.011,0.005 -0.022,0.005 -0.031,0 -0.037,-0.027 -10e-4,-0.004 -10e-4,-0.008 0,-0.033 0.034,-0.049 L 0.378,-0.403 Q 0.386,-0.406 0.395,-0.408 L 0.375,-0.417 Q 0.362,-0.419 0.353,-0.42 q -0.042,0 -0.08,0.033 -0.031,0.028 -0.053,0.074 -0.002,0.005 -0.003,0.008 l -0.032,0.13 -0.04,0.158 Q 0.136,0.009 0.108,0.011 0.083,0.006 0.079,-0.016 q 0,0.002 0.009,-0.043 z"
             id="path89"
             inkscape:connector-curvature="0"
             style="fill:#000000;stroke:none;paint-order:stroke fill markers" />
        </g>
        <g
           transform="matrix(0.7,0,0,0.7,27.531632,23.135011)"
           id="g95">
          <path
             d="m 0.29,-0.352 v 0 q 0.1,0.02 0.144,0.098 0.023,0.039 0.023,0.083 0,0.085 -0.07,0.143 -0.061,0.05 -0.143,0.05 -0.099,0 -0.159,-0.059 -0.043,-0.042 -0.043,-0.098 0,-0.047 0.042,-0.056 0.007,-0.002 0.014,-0.002 0.038,0 0.051,0.032 0.004,0.013 0.005,0.024 0,0.04 -0.036,0.052 -0.014,0.005 -0.03,0.003 0.037,0.062 0.128,0.074 0.013,0.002 0.025,0.002 0.064,0 0.094,-0.063 0.019,-0.04 0.019,-0.102 0,-0.133 -0.08,-0.16 Q 0.256,-0.337 0.235,-0.337 H 0.191 q -0.022,0 -0.024,-0.011 0,-0.01 0.015,-0.012 0.015,0 0.039,-0.003 0.051,-0.002 0.08,-0.039 v -0.001 l 0.001,-0.001 0.001,-0.001 h 0.001 l 0.006,-0.01 q 0.028,-0.047 0.028,-0.114 0,-0.093 -0.072,-0.109 -0.012,-0.003 -0.024,-0.003 -0.07,0 -0.114,0.04 -0.011,0.01 -0.019,0.022 0.062,0 0.062,0.05 0,0.036 -0.031,0.048 -0.009,0.003 -0.02,0.003 -0.039,0 -0.049,-0.035 v 0 -0.001 Q 0.069,-0.522 0.069,-0.53 q 0,-0.067 0.066,-0.107 0.048,-0.029 0.111,-0.029 0.091,0 0.147,0.054 l 0.002,0.002 q 0.035,0.036 0.035,0.082 0,0.083 -0.071,0.139 -0.031,0.024 -0.069,0.037 z"
             id="path93"
             inkscape:connector-curvature="0"
             style="fill:#000000;stroke:none;paint-order:stroke fill markers" />
        </g>
      </g>
      <g
         transform="scale(19)"
         id="g107">
        <g
           transform="translate(29.894737,22.968955)"
           id="g101">
          <path
             d="m 0.088,-0.059 v 0 L 0.146,-0.29 q 0.016,-0.064 0.016,-0.084 0,-0.046 -0.031,-0.046 -0.041,0 -0.067,0.095 -0.003,0.011 -0.006,0.024 -0.011,0.022 -0.017,0.023 -0.012,0 -0.012,-0.01 0,-0.016 0.018,-0.067 0.007,-0.018 0.013,-0.03 0.024,-0.049 0.06,-0.056 0.007,-0.001 0.014,-0.001 0.056,0 0.081,0.048 0.006,0.011 0.009,0.024 0.001,0.002 0.001,0.005 0.058,-0.072 0.128,-0.077 0.056,0 0.076,0.039 0.007,0.012 0.007,0.026 0,0.039 -0.033,0.054 -0.011,0.005 -0.022,0.005 -0.031,0 -0.037,-0.027 -10e-4,-0.004 -10e-4,-0.008 0,-0.033 0.034,-0.049 L 0.378,-0.403 Q 0.386,-0.406 0.395,-0.408 L 0.375,-0.417 Q 0.362,-0.419 0.353,-0.42 q -0.042,0 -0.08,0.033 -0.031,0.028 -0.053,0.074 -0.002,0.005 -0.003,0.008 l -0.032,0.13 -0.04,0.158 Q 0.136,0.009 0.108,0.011 0.083,0.006 0.079,-0.016 q 0,0.002 0.009,-0.043 z"
             id="path99"
             inkscape:connector-curvature="0"
             style="fill:#000000;stroke:none;paint-order:stroke fill markers" />
        </g>
        <g
           transform="matrix(0.7,0,0,0.7,30.373737,22.556063)"
           id="g105">
          <path
             d="m 0.028,-0.165 v -0.031 l 0.307,-0.469 q 0.008,-0.012 0.02,-0.012 0.014,0 0.016,0.011 v 0.015 0.455 h 0.1 v 0.031 h -0.1 v 0.087 q 0,0.031 0.012,0.038 0.014,0.009 0.064,0.009 H 0.468 V 0 Q 0.427,-0.003 0.332,-0.003 0.238,-0.003 0.197,0 v -0.031 h 0.021 q 0.062,0 0.072,-0.017 0.004,-0.007 0.004,-0.03 V -0.165 H 0.028 M 0.3,-0.196 v -0.373 l -0.244,0.373 z"
             id="path103"
             inkscape:connector-curvature="0"
             style="fill:#000000;stroke:none;paint-order:stroke fill markers" />
        </g>
      </g>
      <g
         transform="scale(19)"
         id="g117">
        <g
           transform="translate(36.315789,21.442639)"
           id="g111">
          <path
             d="m 0.088,-0.059 v 0 L 0.146,-0.29 q 0.016,-0.064 0.016,-0.084 0,-0.046 -0.031,-0.046 -0.041,0 -0.067,0.095 -0.003,0.011 -0.006,0.024 -0.011,0.022 -0.017,0.023 -0.012,0 -0.012,-0.01 0,-0.016 0.018,-0.067 0.007,-0.018 0.013,-0.03 0.024,-0.049 0.06,-0.056 0.007,-0.001 0.014,-0.001 0.056,0 0.081,0.048 0.006,0.011 0.009,0.024 0.001,0.002 0.001,0.005 0.058,-0.072 0.128,-0.077 0.056,0 0.076,0.039 0.007,0.012 0.007,0.026 0,0.039 -0.033,0.054 -0.011,0.005 -0.022,0.005 -0.031,0 -0.037,-0.027 -10e-4,-0.004 -10e-4,-0.008 0,-0.033 0.034,-0.049 L 0.378,-0.403 Q 0.386,-0.406 0.395,-0.408 L 0.375,-0.417 Q 0.362,-0.419 0.353,-0.42 q -0.042,0 -0.08,0.033 -0.031,0.028 -0.053,0.074 -0.002,0.005 -0.003,0.008 l -0.032,0.13 -0.04,0.158 Q 0.136,0.009 0.108,0.011 0.083,0.006 0.079,-0.016 q 0,0.002 0.009,-0.043 z"
             id="path109"
             inkscape:connector-curvature="0"
             style="fill:#000000;stroke:none;paint-order:stroke fill markers" />
        </g>
        <g
           transform="matrix(0.7,0,0,0.7,36.794789,21.029747)"
           id="g115">
          <path
             d="m 0.132,-0.328 v 0 q 0.041,-0.099 0.125,-0.099 0.092,0 0.151,0.076 0.033,0.041 0.044,0.096 0.005,0.025 0.005,0.051 0,0.111 -0.077,0.178 -0.056,0.048 -0.129,0.048 -0.102,0 -0.159,-0.097 -0.05,-0.087 -0.05,-0.241 0,-0.173 0.098,-0.275 0.073,-0.075 0.165,-0.075 0.087,0 0.117,0.061 0.01,0.021 0.01,0.047 0,0.04 -0.037,0.047 Q 0.39,-0.51 0.386,-0.51 0.354,-0.51 0.343,-0.538 0.34,-0.546 0.34,-0.556 q 0,-0.045 0.055,-0.045 -0.026,-0.04 -0.088,-0.04 -0.07,0 -0.118,0.063 -0.057,0.075 -0.057,0.226 v 0.024 m 0.119,0.322 v 0 q 0.067,0 0.099,-0.065 0.017,-0.036 0.017,-0.134 0,-0.1 -0.018,-0.137 -0.031,-0.062 -0.093,-0.062 -0.079,0 -0.109,0.094 -0.013,0.039 -0.013,0.084 0,0.098 0.018,0.145 0.019,0.046 0.059,0.066 0.019,0.009 0.04,0.009 z"
             id="path113"
             inkscape:connector-curvature="0"
             style="fill:#000000;stroke:none;paint-order:stroke fill markers" />
        </g>
      </g>
      <g
         transform="scale(19)"
         id="g127">
        <g
           transform="translate(40.368421,20.600534)"
           id="g121">
          <path
             d="m 0.088,-0.059 v 0 L 0.146,-0.29 q 0.016,-0.064 0.016,-0.084 0,-0.046 -0.031,-0.046 -0.041,0 -0.067,0.095 -0.003,0.011 -0.006,0.024 -0.011,0.022 -0.017,0.023 -0.012,0 -0.012,-0.01 0,-0.016 0.018,-0.067 0.007,-0.018 0.013,-0.03 0.024,-0.049 0.06,-0.056 0.007,-0.001 0.014,-0.001 0.056,0 0.081,0.048 0.006,0.011 0.009,0.024 0.001,0.002 0.001,0.005 0.058,-0.072 0.128,-0.077 0.056,0 0.076,0.039 0.007,0.012 0.007,0.026 0,0.039 -0.033,0.054 -0.011,0.005 -0.022,0.005 -0.031,0 -0.037,-0.027 -10e-4,-0.004 -10e-4,-0.008 0,-0.033 0.034,-0.049 L 0.378,-0.403 Q 0.386,-0.406 0.395,-0.408 L 0.375,-0.417 Q 0.362,-0.419 0.353,-0.42 q -0.042,0 -0.08,0.033 -0.031,0.028 -0.053,0.074 -0.002,0.005 -0.003,0.008 l -0.032,0.13 -0.04,0.158 Q 0.136,0.009 0.108,0.011 0.083,0.006 0.079,-0.016 q 0,0.002 0.009,-0.043 z"
             id="path119"
             inkscape:connector-curvature="0"
             style="fill:#000000;stroke:none;paint-order:stroke fill markers" />
        </g>
        <g
           transform="matrix(0.7,0,0,0.7,40.847421,20.187642)"
           id="g125">
          <path
             d="m 0.476,-0.609 -0.135,0.19 q -0.043,0.06 -0.062,0.171 -0.011,0.074 -0.011,0.164 v 0.051 q 0,0.055 -0.046,0.055 -0.046,0 -0.046,-0.055 0,-0.167 0.097,-0.335 L 0.299,-0.409 0.411,-0.567 H 0.204 q -0.091,0 -0.098,0.006 -0.01,0.009 -0.025,0.091 H 0.056 l 0.033,-0.206 h 0.025 q 0.004,0.017 0.018,0.023 h 0.001 v 0 q 0.026,0.009 0.109,0.009 h 0.243 q 0,0.023 -0.009,0.035 z"
             id="path123"
             inkscape:connector-curvature="0"
             style="fill:#000000;stroke:none;paint-order:stroke fill markers" />
        </g>
      </g>
      <g
         transform="scale(19)"
         id="g137">
        <g
           transform="translate(44.368421,19.758429)"
           id="g131">
          <path
             d="m 0.088,-0.059 v 0 L 0.146,-0.29 q 0.016,-0.064 0.016,-0.084 0,-0.046 -0.031,-0.046 -0.041,0 -0.067,0.095 -0.003,0.011 -0.006,0.024 -0.011,0.022 -0.017,0.023 -0.012,0 -0.012,-0.01 0,-0.016 0.018,-0.067 0.007,-0.018 0.013,-0.03 0.024,-0.049 0.06,-0.056 0.007,-0.001 0.014,-0.001 0.056,0 0.081,0.048 0.006,0.011 0.009,0.024 0.001,0.002 0.001,0.005 0.058,-0.072 0.128,-0.077 0.056,0 0.076,0.039 0.007,0.012 0.007,0.026 0,0.039 -0.033,0.054 -0.011,0.005 -0.022,0.005 -0.031,0 -0.037,-0.027 -10e-4,-0.004 -10e-4,-0.008 0,-0.033 0.034,-0.049 L 0.378,-0.403 Q 0.386,-0.406 0.395,-0.408 L 0.375,-0.417 Q 0.362,-0.419 0.353,-0.42 q -0.042,0 -0.08,0.033 -0.031,0.028 -0.053,0.074 -0.002,0.005 -0.003,0.008 l -0.032,0.13 -0.04,0.158 Q 0.136,0.009 0.108,0.011 0.083,0.006 0.079,-0.016 q 0,0.002 0.009,-0.043 z"
             id="path129"
             inkscape:connector-curvature="0"
             style="fill:#000000;stroke:none;paint-order:stroke fill markers" />
        </g>
        <g
           transform="matrix(0.7,0,0,0.7,44.847421,19.345537)"
           id="g135">
          <path
             d="m 0.163,-0.457 0.124,0.08 q 0.099,-0.058 0.099,-0.14 0,-0.066 -0.06,-0.103 -0.035,-0.021 -0.077,-0.021 -0.072,0 -0.113,0.045 v 0 l -0.001,0.001 q -0.022,0.026 -0.022,0.057 0,0.048 0.05,0.081 m 0.146,0.095 v 0 q 0.077,0.048 0.094,0.066 0.003,0.002 0.005,0.005 0.049,0.054 0.049,0.123 0,0.089 -0.074,0.145 -0.058,0.045 -0.134,0.045 -0.095,0 -0.157,-0.059 -0.05,-0.048 -0.05,-0.114 0,-0.112 0.144,-0.184 -0.062,-0.042 -0.073,-0.054 -0.044,-0.049 -0.044,-0.11 0,-0.08 0.067,-0.13 0.05,-0.037 0.114,-0.037 0.087,0 0.141,0.055 0.039,0.04 0.039,0.094 0,0.093 -0.121,0.155 m -0.1,0.042 v 0 q -0.112,0.07 -0.117,0.169 0,0.073 0.063,0.116 0.042,0.029 0.095,0.029 0.078,0 0.125,-0.049 0.032,-0.034 0.032,-0.077 0,-0.058 -0.064,-0.103 -0.002,-0.001 -0.011,-0.007 z"
             id="path133"
             inkscape:connector-curvature="0"
             style="fill:#000000;stroke:none;paint-order:stroke fill markers" />
        </g>
      </g>
      <g
         transform="scale(19)"
         id="g147">
        <g
           transform="translate(32.789474,22.232113)"
           id="g141">
          <path
             d="m 0.088,-0.059 v 0 L 0.146,-0.29 q 0.016,-0.064 0.016,-0.084 0,-0.046 -0.031,-0.046 -0.041,0 -0.067,0.095 -0.003,0.011 -0.006,0.024 -0.011,0.022 -0.017,0.023 -0.012,0 -0.012,-0.01 0,-0.016 0.018,-0.067 0.007,-0.018 0.013,-0.03 0.024,-0.049 0.06,-0.056 0.007,-0.001 0.014,-0.001 0.056,0 0.081,0.048 0.006,0.011 0.009,0.024 0.001,0.002 0.001,0.005 0.058,-0.072 0.128,-0.077 0.056,0 0.076,0.039 0.007,0.012 0.007,0.026 0,0.039 -0.033,0.054 -0.011,0.005 -0.022,0.005 -0.031,0 -0.037,-0.027 -10e-4,-0.004 -10e-4,-0.008 0,-0.033 0.034,-0.049 L 0.378,-0.403 Q 0.386,-0.406 0.395,-0.408 L 0.375,-0.417 Q 0.362,-0.419 0.353,-0.42 q -0.042,0 -0.08,0.033 -0.031,0.028 -0.053,0.074 -0.002,0.005 -0.003,0.008 l -0.032,0.13 -0.04,0.158 Q 0.136,0.009 0.108,0.011 0.083,0.006 0.079,-0.016 q 0,0.002 0.009,-0.043 z"
             id="path139"
             inkscape:connector-curvature="0"
             style="fill:#000000;stroke:none;paint-order:stroke fill markers" />
        </g>
        <g
           transform="matrix(0.7,0,0,0.7,33.268474,21.819221)"
           id="g145">
          <path
             d="m 0.449,-0.201 v 0 q 0,0.103 -0.077,0.17 Q 0.31,0.022 0.231,0.022 0.139,0.022 0.085,-0.055 0.05,-0.104 0.05,-0.161 q 0,-0.046 0.041,-0.052 0.004,-0.001 0.008,-0.001 0.037,0 0.048,0.033 0.002,0.008 0.002,0.016 0,0.032 -0.028,0.044 -0.01,0.005 -0.022,0.005 -0.011,0 -0.017,-0.002 0.018,0.063 0.077,0.094 0.033,0.018 0.07,0.018 0.067,0 0.107,-0.065 0.024,-0.042 0.024,-0.137 0,-0.084 -0.018,-0.126 -0.028,-0.064 -0.085,-0.064 -0.081,0 -0.129,0.07 -0.006,0.009 -0.013,0.009 -0.013,0 -0.014,-0.014 v -0.012 -0.296 q 0,-0.023 0.01,-0.024 0.004,0 0.012,0.003 0.063,0.028 0.133,0.028 0.072,0 0.136,-0.029 0.005,-0.003 0.008,-0.003 0.01,0 0.01,0.011 0,0.013 -0.032,0.042 -0.068,0.062 -0.161,0.062 -0.042,0 -0.085,-0.013 v 0.195 q 0.052,-0.051 0.127,-0.051 0.088,0 0.145,0.077 0.045,0.061 0.045,0.142 z"
             id="path143"
             inkscape:connector-curvature="0"
             style="fill:#000000;stroke:none;paint-order:stroke fill markers" />
        </g>
      </g>
    </g>
  </g>
</svg>
